<?xml version="1.0" standalone="no"?>
<!DOCTYPE svg PUBLIC "-//W3C//DTD SVG 20010904//EN"
 "http://www.w3.org/TR/2001/REC-SVG-20010904/DTD/svg10.dtd">
<svg version="1.0" xmlns="http://www.w3.org/2000/svg"
 width="500.000000pt" height="500.000000pt" viewBox="0 0 500.000000 500.000000"
 preserveAspectRatio="xMidYMid meet">

<g transform="translate(0.000000,500.000000) scale(0.100000,-0.100000)"
fill="#000000" stroke="none">
<path d="M0 2500 l0 -2500 2500 0 2500 0 0 2500 0 2500 -2500 0 -2500 0 0
-2500z m1485 2225 c50 -85 102 -174 186 -320 105 -185 200 -349 209 -365 33
-55 141 -242 159 -275 11 -22 31 -57 43 -77 33 -54 236 -404 271 -468 17 -30
33 -57 36 -60 4 -3 22 -34 40 -69 19 -36 44 -80 57 -98 l23 -34 13 26 c12 23
49 86 147 250 20 33 49 86 66 117 16 32 59 106 94 165 35 59 89 153 121 208
31 55 66 116 77 135 57 98 93 163 93 170 0 5 4 10 8 12 4 2 28 39 53 83 25 44
99 172 164 285 65 113 132 230 148 260 17 30 34 57 37 60 4 3 15 20 24 38 l17
32 345 0 c297 0 345 -2 341 -14 -3 -8 -34 -63 -68 -123 -80 -141 -198 -344
-209 -363 -23 -37 -76 -131 -108 -190 -19 -36 -43 -76 -52 -90 -9 -14 -28 -45
-42 -70 -22 -40 -345 -600 -436 -755 -19 -33 -45 -78 -57 -100 -45 -81 -67
-120 -75 -130 -4 -5 -19 -30 -33 -55 -27 -48 -268 -468 -414 -720 -49 -85 -94
-164 -100 -175 -7 -11 -31 -54 -55 -95 -24 -41 -55 -96 -68 -123 -14 -26 -28
-47 -32 -47 -6 0 -86 132 -115 190 -7 14 -23 41 -35 60 -12 19 -38 64 -58 100
-20 36 -92 161 -161 278 -68 117 -135 234 -150 260 -45 83 -271 476 -289 502
-9 14 -33 54 -52 90 -19 36 -44 81 -55 100 -12 19 -44 76 -73 125 -29 50 -106
182 -170 295 -64 113 -139 243 -167 290 -27 47 -87 150 -133 230 -46 80 -110
189 -142 243 -32 54 -58 100 -58 103 0 2 -11 21 -23 42 -30 48 -77 131 -77
137 0 3 156 4 346 3 l347 -3 42 -70z m880 -3175 c-4 -7 -103 -10 -281 -9
l-275 1 -23 -31 c-19 -26 -25 -29 -30 -15 -6 16 -2 28 19 51 13 16 600 19 590
3z m-612 -70 c3 -10 -1 -25 -9 -31 -12 -10 -13 -9 -8 5 3 9 1 16 -5 16 -6 0
-8 7 -5 15 8 21 21 19 27 -5z m194 4 c-3 -3 -12 -4 -19 -1 -8 3 -5 6 6 6 11 1
17 -2 13 -5z m-237 -43 c-5 -11 -7 -27 -4 -35 3 -9 1 -16 -5 -16 -6 0 -11 6
-12 13 0 6 -5 2 -11 -10 -6 -13 -15 -23 -20 -23 -5 0 -1 12 9 28 31 50 66 84
43 43z m43 -25 c10 3 17 1 17 -6 0 -17 -43 -8 -47 10 -4 11 -2 12 5 2 5 -7 16
-10 25 -6z m85 -3 c-10 -2 -28 -2 -40 0 -13 2 -5 4 17 4 22 1 32 -1 23 -4z
m75 0 c-7 -2 -19 -2 -25 0 -7 3 -2 5 12 5 14 0 19 -2 13 -5z m102 -3 c18 -8
18 -9 -5 -9 -14 0 -32 4 -40 9 -12 8 -12 10 5 9 11 0 29 -4 40 -9z m-334 -57
c-12 -20 -14 -14 -5 12 4 9 9 14 11 11 3 -2 0 -13 -6 -23z m-37 -8 c-4 -8 -1
-15 6 -15 6 0 9 -4 5 -10 -3 -5 -12 -7 -20 -4 -11 5 -12 11 -4 25 12 23 21 25
13 4z m2258 -827 c3 -7 -3 -21 -12 -31 -17 -17 -18 -17 -22 7 -4 18 -1 23 10
18 10 -3 13 -1 8 6 -4 7 -3 12 2 12 6 0 12 -6 14 -12z m-41 -58 c5 0 9 -7 9
-15 0 -8 -3 -15 -7 -15 -14 0 -32 51 -25 68 5 13 8 10 10 -10 2 -16 8 -28 13
-28z m133 -75 c36 -49 69 -94 74 -100 35 -46 70 -109 66 -120 -9 -22 -90 -27
-344 -21 -129 2 -464 6 -745 8 -434 2 -471 3 -250 8 l260 6 -260 4 -260 5 330
5 c279 5 304 6 160 10 -93 2 -142 5 -107 7 34 2 62 8 62 13 0 6 -9 10 -20 10
-22 0 -27 16 -7 23 6 3 95 4 197 2 102 -1 125 0 53 2 -77 2 -133 8 -133 13 0
6 164 10 446 10 l446 0 -16 23 c-8 12 -29 45 -46 74 -25 43 -29 56 -20 73 6
11 7 20 3 20 -4 0 1 7 11 15 11 8 23 12 27 8 3 -5 36 -48 73 -98z m-317 89
c-3 -3 -12 -4 -19 -1 -8 3 -5 6 6 6 11 1 17 -2 13 -5z m0 -30 c-3 -3 -12 -4
-19 -1 -8 3 -5 6 6 6 11 1 17 -2 13 -5z m12 -25 c-8 -5 -34 -8 -59 -7 l-45 2
48 3 c33 3 50 9 54 21 5 12 8 12 11 3 2 -7 -2 -17 -9 -22z"/>
</g>
</svg>
